<?xml version="1.0" standalone="no"?><!-- Generator: Gravit.io --><svg xmlns="http://www.w3.org/2000/svg" xmlns:xlink="http://www.w3.org/1999/xlink" style="isolation:isolate" viewBox="0 0 32 32" width="32" height="32"><defs><clipPath id="_clipPath_88Dh63Wrqt8vOaV95iDVFRYMUxtFqaUl"><rect width="32" height="32"/></clipPath></defs><g clip-path="url(#_clipPath_88Dh63Wrqt8vOaV95iDVFRYMUxtFqaUl)"><path d=" M 0.4 23.7 L 15.7 31.4 L 16.3 31.4 L 31.6 23.7 C 31.775 23.639 31.912 23.5 31.971 23.324 C 32.029 23.147 32.003 22.954 31.9 22.8 C 31.835 22.653 31.713 22.539 31.563 22.483 C 31.412 22.426 31.246 22.433 31.1 22.5 L 16 30.1 L 0.9 22.5 C 0.754 22.433 0.588 22.426 0.437 22.483 C 0.287 22.539 0.165 22.653 0.1 22.8 C -0.003 22.954 -0.029 23.147 0.029 23.324 C 0.088 23.5 0.225 23.639 0.4 23.7 Z " fill="rgb(255,255,255)"/><path d=" M 0.4 19.9 L 15.7 27.5 L 16.3 27.5 L 31.6 19.9 C 31.775 19.839 31.912 19.7 31.971 19.524 C 32.029 19.347 32.003 19.154 31.9 19 C 31.835 18.853 31.713 18.739 31.563 18.683 C 31.412 18.626 31.246 18.633 31.1 18.7 L 16 26.2 L 0.9 18.7 C 0.754 18.633 0.588 18.626 0.437 18.683 C 0.287 18.739 0.165 18.853 0.1 19 C -0.003 19.154 -0.029 19.347 0.029 19.524 C 0.088 19.7 0.225 19.839 0.4 19.9 Z " fill="rgb(255,255,255)"/><path d=" M 0.4 14.7 L 15.7 22.4 L 16.3 22.4 L 31.6 14.7 C 31.772 14.667 31.914 14.548 31.975 14.384 C 32.036 14.221 32.008 14.037 31.9 13.9 C 31.835 13.753 31.713 13.639 31.563 13.583 C 31.412 13.526 31.246 13.533 31.1 13.6 L 16 21.1 L 0.9 13.6 C 0.754 13.533 0.588 13.526 0.437 13.583 C 0.287 13.639 0.165 13.753 0.1 13.9 C -0.008 14.037 -0.036 14.221 0.025 14.384 C 0.086 14.548 0.228 14.667 0.4 14.7 Z " fill="rgb(255,255,255)"/><path d=" M 31.3 8.3 L 16.5 1.5 C 16.174 1.4 15.826 1.4 15.5 1.5 L 0.7 8.3 C 0.262 8.491 -0.02 8.923 -0.02 9.4 C -0.02 9.877 0.262 10.309 0.7 10.5 L 15.5 17.3 L 16.5 17.3 L 31.3 10.5 C 31.738 10.309 32.02 9.877 32.02 9.4 C 32.02 8.923 31.738 8.491 31.3 8.3 Z  M 16 14.8 L 4.2 9.4 L 16 4 L 27.8 9.4 L 16 14.8 Z " fill="rgb(255,255,255)"/></g></svg>