<?xml version="1.0" encoding="UTF-8"?>
<svg width="128px" height="129px" viewBox="0 0 128 129" version="1.1" xmlns="http://www.w3.org/2000/svg" xmlns:xlink="http://www.w3.org/1999/xlink">
    <!-- Generator: Sketch 52.5 (67469) - http://www.bohemiancoding.com/sketch -->
    <title>account_confirmed-image</title>
    <desc>Created with Sketch.</desc>
    <g id="Page-1" stroke="none" stroke-width="1" fill="none" fill-rule="evenodd">
        <g id="UMA-account-confirmed" transform="translate(-657.000000, -153.000000)">
            <g id="account_confirmed-image" transform="translate(657.000000, 153.000000)">
                <path d="M100.464978,128.64959 C85.5532894,128.64959 73.4649776,116.561278 73.4649776,101.64959 C73.4649776,86.7379019 85.5532894,74.6495902 100.464978,74.6495902 C115.376666,74.6495902 127.464978,86.7379019 127.464978,101.64959 C127.464978,116.561278 115.376666,128.64959 100.464978,128.64959 Z M114.064984,88.3883991 L96.0877746,107.475313 L86.3899901,97.1052996 L81.6571038,101.53138 L96.0709472,116.944359 L118.78211,92.831273 L114.064984,88.3883991 Z" id="Combined-Shape" fill="#3282FF"></path>
                <path d="M68.0442406,100.276347 C66.8673432,100.322019 65.6354633,100.346154 64.3461538,100.346154 C40.3923077,100.346154 36.3076923,91.9230769 36.3076923,91.9230769 L36.3076923,90.1461538 C36.3359089,89.7004461 36.3359089,89.2534 36.3076923,88.8076923 C36.6538462,71.9846154 38.9615385,67.0923077 56.2,64 C58.3283432,66.1809826 61.3056235,67.3196025 64.3461538,67.1153846 C67.3759786,67.3375779 70.3516423,66.2248651 72.4923077,64.0692308 C81.1192302,65.595003 86.0164351,67.5827127 88.7942219,71.3308058 C77.117103,75.9821438 68.721768,87.109332 68.0442406,100.276347 Z M125.465277,79.8535131 C123.701663,77.9064382 121.70885,76.1708369 119.529414,74.6892836 C120.191746,71.2279024 120.538462,67.6544411 120.538462,64 C120.538462,32.7746699 95.2253301,7.46153846 64,7.46153846 C32.7746699,7.46153846 7.46153846,32.7746699 7.46153846,64 C7.46153846,95.2253301 32.7746699,120.538462 64,120.538462 C67.1337698,120.538462 70.2079913,120.283505 73.2030534,119.793203 C74.6269601,122.013053 76.309503,124.051142 78.2081474,125.864933 C73.6402869,126.909688 68.8845892,127.461538 64,127.461538 C28.9511601,127.461538 0.538461538,99.0488399 0.538461538,64 C0.538461538,28.9511601 28.9511601,0.538461538 64,0.538461538 C99.0488399,0.538461538 127.461538,28.9511601 127.461538,64 C127.461538,69.4740355 126.768463,74.7861947 125.465277,79.8535131 Z M65.0153846,27.0769231 C77.6846154,27.0769231 79.8769231,35.1769231 79.8769231,45.1461538 C79.8769231,55.1153846 73.2307692,63.1923077 65.0153846,63.1923077 C56.8,63.1923077 50.1538462,55.1384615 50.1538462,45.1461538 C50.1538462,35.1538462 52.3230769,27.0769231 65.0153846,27.0769231 Z" id="Combined-Shape" fill="#08073F" fill-rule="nonzero"></path>
            </g>
        </g>
    </g>
</svg>