<svg xmlns="http://www.w3.org/2000/svg" width="90" height="39" viewBox="0 0 90 39">
    <g fill="none" fill-rule="evenodd">
        <g fill-rule="nonzero">
            <path fill="#20A6DB" d="M83 21.226h-3.722L77.38 23.09v3.672h3.731L83 24.9z"/>
            <path fill="#FFF" d="M9 20.29c0 4.304 2.91 7.395 7.706 7.395h7.281v-3.868h-7.281c-2.424-.01-3.615-1.613-3.615-3.528 0-1.914 1.191-3.489 3.615-3.508h7.281v-3.858h-7.281C11.9 12.913 9 15.974 9 20.289zM38.785 20.699c0 2.2-1.628 3.375-3.572 3.375-1.944 0-3.542-1.175-3.542-3.375v-7.776h-3.937v7.776c0 4.353 3.108 6.986 7.479 6.986 4.37 0 7.509-2.642 7.509-6.986v-7.776h-3.937v7.776zM65.064 12.923c-4.577 0-7.355 3.059-7.355 7.361 0 4.303 2.778 7.391 7.355 7.391h1.621V23.82h-1.62c-2.314-.01-3.451-1.613-3.451-3.526 0-1.913 1.137-3.487 3.45-3.506h3.688v10.897h3.944V12.922h-7.632zM46.468 19.2v7.562h3.938v-7.561c0-1.872 1.15-3.41 3.488-3.43h2.878V12h-2.878c-4.627 0-7.426 2.992-7.426 7.2z"/>
        </g>
        <g fill-rule="nonzero">
            <path fill="#20A6DB" d="M83 21.226h-3.722L77.38 23.09v3.672h3.731L83 24.9z"/>
            <path fill="#1F2427" d="M9 20.29c0 4.304 2.91 7.395 7.706 7.395h7.281v-3.868h-7.281c-2.424-.01-3.615-1.613-3.615-3.528 0-1.914 1.191-3.489 3.615-3.508h7.281v-3.858h-7.281C11.9 12.913 9 15.974 9 20.289zM38.785 20.699c0 2.2-1.628 3.375-3.572 3.375-1.944 0-3.542-1.175-3.542-3.375v-7.776h-3.937v7.776c0 4.353 3.108 6.986 7.479 6.986 4.37 0 7.509-2.642 7.509-6.986v-7.776h-3.937v7.776zM65.064 12.923c-4.577 0-7.355 3.059-7.355 7.361 0 4.303 2.778 7.391 7.355 7.391h1.621V23.82h-1.62c-2.314-.01-3.451-1.613-3.451-3.526 0-1.913 1.137-3.487 3.45-3.506h3.688v10.897h3.944V12.922h-7.632zM46.468 19.2v7.562h3.938v-7.561c0-1.872 1.15-3.41 3.488-3.43h2.878V12h-2.878c-4.627 0-7.426 2.992-7.426 7.2z"/>
        </g>
    </g>
</svg>
