<svg xmlns="http://www.w3.org/2000/svg" width="34" height="23" viewBox="0 0 34 23">
    <g fill="#000000" fill-rule="nonzero" opacity=".8">
        <path d="M33.936 7.061a1.04 1.04 0 0 0-1.012-.796H14.192v-1.03h3.14c.574 0 1.023-.457 1.023-1.026V1.117c0-.57-.449-1.038-1.023-1.038H9.017c-.574 0-1.07.469-1.07 1.038v3.092c0 .569.496 1.025 1.07 1.025h3.093v1.031H5.898c-.574 0-1.073.466-1.073 1.035v1.135c-2.082.479-4.158 2.56-4.158 5.049 0 2.488 2.076 4.57 4.158 5.048v1.135c0 .57.5 1.031 1.073 1.031h14.553c.574 0 1.026-.462 1.026-1.03V14.12l11.906-5.9c.43-.214.663-.695.553-1.16zm-23.907-4.92h6.245v1.031h-6.245v-1.03zM2.746 13.484c0-1.342 1.038-2.475 2.079-2.902v5.804c-1.04-.427-2.079-1.56-2.079-2.902zm17.232-.924a1.04 1.04 0 0 0-.582.924v5.152H6.906V8.326h21.615l-8.543 4.234zM31.683 14.936c-.39-.53-1.285-.53-1.676 0-.38.514-2.28 3.166-2.28 4.825 0 1.653 1.399 2.998 3.118 2.998 1.72 0 3.119-1.345 3.119-2.998 0-1.66-1.9-4.31-2.28-4.825zm-.838 5.762c-.573 0-1.04-.42-1.04-.937 0-.451.46-1.405 1.039-2.354.556.914 1.04 1.89 1.04 2.354 0 .517-.466.937-1.039.937z"/>
    </g>
</svg>
