<?xml version="1.0" standalone="no"?><!-- Generator: Gravit.io --><svg xmlns="http://www.w3.org/2000/svg" xmlns:xlink="http://www.w3.org/1999/xlink" style="isolation:isolate" viewBox="0 0 11 12" width="11" height="12"><defs><clipPath id="_clipPath_YJQ9hcKcUyYM5r1UDDvRSm313HZYPnQO"><rect width="11" height="12"/></clipPath></defs><g clip-path="url(#_clipPath_YJQ9hcKcUyYM5r1UDDvRSm313HZYPnQO)"><g id="Group"><clipPath id="_clipPath_n8d3YpNmPGhvsJJPEsqK9KV6EAOy4ZAz"><rect x="0" y="5" width="11" height="7" transform="matrix(1,0,0,1,0,0)" fill="rgb(255,255,255)"/></clipPath><g clip-path="url(#_clipPath_n8d3YpNmPGhvsJJPEsqK9KV6EAOy4ZAz)"><g id="Group"><path d=" M 5.5 9.2 L 9.5 5.2 L 10.9 6.6 L 6.9 10.6 L 5.5 12 L 0.1 6.6 L 1.5 5.2 L 5.5 9.2 L 5.5 9.2 Z " fill="rgb(0,167,233)"/></g></g></g><g id="Group"><clipPath id="_clipPath_Q1SBhyKpfCIco4uXohGkpwZBQjFoodT5"><rect x="0" y="0" width="11" height="7" transform="matrix(1,0,0,1,0,0)" fill="rgb(255,255,255)"/></clipPath><g clip-path="url(#_clipPath_Q1SBhyKpfCIco4uXohGkpwZBQjFoodT5)"><g id="Group"><path d=" M 5.5 4.2 L 9.5 0.2 L 10.9 1.6 L 6.9 5.6 L 5.5 7 L 0.1 1.6 L 1.5 0.2 L 5.5 4.2 L 5.5 4.2 Z " fill="rgb(0,167,233)"/></g></g></g></g></svg>