<?xml version="1.0" encoding="UTF-8"?>
<svg width="48px" height="48px" viewBox="0 0 48 48" version="1.1" xmlns="http://www.w3.org/2000/svg" xmlns:xlink="http://www.w3.org/1999/xlink">
    <!-- Generator: Sketch 48.2 (47327) - http://www.bohemiancoding.com/sketch -->
    <title>system_overview_inactive</title>
    <desc>Created with Sketch.</desc>
    <defs></defs>
    <g id="Symbols" stroke="none" stroke-width="1" fill="none" fill-rule="evenodd">
        <g id="system_overview_inactive" fill="#A5A7A9" fill-rule="nonzero">
            <path d="M19.4,12.2 L28.66,12.2 C28.76,12.2 28.76,12.2 28.86,12 L30.59,7.73 C30.5806993,7.62363329 30.4963667,7.53930074 30.39,7.53 L17.67,7.53 C17.5636333,7.53930074 17.4793007,7.62363329 17.47,7.73 L19.2,12 C19.3,12.2 19.3,12.2 19.4,12.2 Z" id="Shape"></path>
            <path d="M39.33,35.08 L8.72,35.08 C8.58388703,35.0740486 8.45165755,35.1262201 8.35627771,35.2235076 C8.26089787,35.320795 8.21135477,35.4540316 8.22,35.59 L8.22,37 C8.21135477,37.1359684 8.26089787,37.269205 8.35627771,37.3664924 C8.45165755,37.4637799 8.58388703,37.5159514 8.72,37.51 L39.44,37.51 C39.576113,37.5159514 39.7083425,37.4637799 39.8037223,37.3664924 C39.8991021,37.269205 39.9486452,37.1359684 39.94,37 L39.94,35.59 C39.8764753,35.3009579 39.625724,35.0913134 39.33,35.08 Z" id="Shape"></path>
            <path d="M1,0 L1,48 L4.76,48 C5.29363883,47.3765017 6.0694091,47.0122903 6.89,47 L41.27,47 C42.0905909,47.0122903 42.8663612,47.3765017 43.4,48 L47.16,48 L47.16,0 L1,0 Z M42.28,25.32 L42.28,37 C42.28,37.7532148 41.9807866,38.4755799 41.4481833,39.0081833 C40.9155799,39.5407866 40.1932148,39.84 39.44,39.84 L8.72,39.84 C7.15151131,39.84 5.88,38.5684887 5.88,37 L5.88,5.49 C5.90392362,5.16352858 6.16352858,4.90392362 6.49,4.88 L41.67,4.88 C41.9964714,4.90392362 42.2560764,5.16352858 42.28,5.49 L42.28,25.32 Z" id="Shape"></path>
        </g>
    </g>
</svg>