<svg id="Layer_1" data-name="Layer 1" xmlns="http://www.w3.org/2000/svg" viewBox="0 0 32 32"><title>warning</title><path d="M18.1,1.3A2.4,2.4,0,0,0,16,0a2.3,2.3,0,0,0-1.1.3,2.4,2.4,0,0,0-1,1L.3,28.4a2.5,2.5,0,0,0-.2,1.9,2.4,2.4,0,0,0,1.2,1.4,2,2,0,0,0,1.1.3H29.6A2.4,2.4,0,0,0,32,29.6a2.7,2.7,0,0,0-.3-1.2ZM3.3,29,16,3.8,28.7,29Z"/><polygon points="13.9 25.2 13.9 25.2 13.9 25.2 13.9 25.2"/><polygon points="14.4 21.7 17.6 21.7 18.1 11.8 13.9 11.8 14.4 21.7"/><path d="M16.1,23.1a2.3,2.3,0,0,0-1.6.5,2.1,2.1,0,0,0-.6,1.6,1.8,1.8,0,0,0,.6,1.5,2.1,2.1,0,0,0,1.6.6,2,2,0,0,0,1.5-.6,1.8,1.8,0,0,0,.6-1.5,2.1,2.1,0,0,0-.6-1.6A2.3,2.3,0,0,0,16.1,23.1Z"/></svg>