<?xml version="1.0" encoding="UTF-8"?>
<svg width="291px" height="180px" viewBox="0 0 291 180" version="1.1" xmlns="http://www.w3.org/2000/svg" xmlns:xlink="http://www.w3.org/1999/xlink">
    <!-- Generator: Sketch 52.5 (67469) - http://www.bohemiancoding.com/sketch -->
    <title>connection_cancelled-image</title>
    <desc>Created with Sketch.</desc>
    <g id="Page-1" stroke="none" stroke-width="1" fill="none" fill-rule="evenodd">
        <g id="CC-Cloud-on-Cancel-setup" transform="translate(-571.000000, -144.000000)" fill="#9B9B9B" fill-rule="nonzero">
            <g id="Group-cloud-Copy" transform="translate(571.000000, 144.000000)">
                <path d="M158.957054,137.362245 C157.979238,140.682346 157.454545,144.196565 157.454545,147.833333 C157.454545,153.542558 158.747634,158.949766 161.056916,163.778061 L94.7186147,163.778061 C92.8138528,163.954167 90.9090909,164.658588 89.5238095,165.891326 L88.4848485,166.947959 C87.4458875,168.709014 85.3679654,169.061225 83.2900433,169.061225 L73.9393939,169.061225 C73.4199134,169.061225 72.9004329,168.532908 72.9004329,168.004592 L72.9004329,153.798754 L19.5478595,153.798754 C17.8547378,153.955291 16.1616162,154.581445 14.9302549,155.677212 L14.006734,156.616441 C13.0832131,158.181823 11.2361713,158.494899 9.38912936,158.494899 L1.07744108,158.494899 C0.615680615,158.494899 0.153920154,158.025284 0.153920154,157.55567 L0.153920154,9.94017471 C0.153920154,9.4705602 0.615680615,9.00094569 1.07744108,9.00094569 L72.9004329,9.00094569 L72.9004329,1.93715986 C72.9004329,1.40884354 73.4199134,0.880527211 73.9393939,0.880527211 L216.969697,0.880527211 C217.489177,0.880527211 218.008658,1.40884354 218.008658,1.93715986 L218.008658,9.00094569 L289.831652,9.00094569 C290.293413,9.00094569 290.755173,9.4705602 290.755173,9.94017471 L290.755173,157.55567 C290.755173,158.025284 290.293413,158.494899 289.831652,158.494899 L281.519964,158.494899 C279.826842,158.33836 278.13372,157.712208 276.902359,156.616441 L275.978838,155.677212 C275.055317,154.11183 273.208275,153.798754 271.361234,153.798754 L230.976159,153.798754 C231.290929,151.856803 231.454545,149.864176 231.454545,147.833333 C231.454545,141.496649 229.86161,135.532014 227.054331,130.318023 L268.744591,130.318028 C273.054355,130.318028 276.594518,126.71765 276.594518,122.334581 L276.748439,122.334581 L276.748439,25.4374536 C276.748439,23.7155338 275.363157,22.4632284 273.823955,22.4632284 L218.008658,22.4632284 L218.008658,119.297758 C213.522545,115.590574 208.147519,112.920899 202.251082,111.656235 L202.251082,22.4632284 L202.251082,19.3715986 C202.251082,17.4344388 200.692641,16.0255952 198.961039,16.0255952 L161.770084,16.0255952 L129.139009,16.0255952 L91.7748918,16.0255952 C89.8701299,16.0255952 88.4848485,17.6105442 88.4848485,19.3715986 L88.4848485,22.4632284 L88.4848485,128.380868 C88.4848485,129.045152 88.5571291,129.693455 88.6940698,130.318028 C89.5736338,134.329634 93.1207068,137.362245 97.3160173,137.362245 L129.139009,137.362245 L158.957054,137.362245 Z M72.9004329,130.318028 L72.9004329,22.4632284 L16.9312169,22.4632284 C15.2380953,22.4632284 14.006734,23.8720719 14.006734,25.4374536 L14.006734,122.334581 C14.006734,126.71765 17.5468975,130.318028 21.8566618,130.318028 L72.9004329,130.318028 Z M194.454545,179.833333 C176.781433,179.833333 162.454545,165.506445 162.454545,147.833333 C162.454545,130.160221 176.781433,115.833333 194.454545,115.833333 C212.127657,115.833333 226.454545,130.160221 226.454545,147.833333 C226.454545,165.506445 212.127657,179.833333 194.454545,179.833333 Z M211.454545,134.233333 L208.054545,130.833333 L194.454545,144.433333 L180.854545,130.833333 L177.454545,134.233333 L191.054545,147.833333 L177.454545,161.433333 L180.854545,164.833333 L194.454545,151.233333 L208.054545,164.833333 L211.454545,161.433333 L197.854545,147.833333 L211.454545,134.233333 Z" id="connection_cancelled-image"></path>
            </g>
        </g>
    </g>
</svg>