<?xml version="1.0" encoding="UTF-8"?>
<svg width="299px" height="91px" viewBox="0 0 299 91" version="1.1" xmlns="http://www.w3.org/2000/svg" xmlns:xlink="http://www.w3.org/1999/xlink">
    <!-- Generator: Sketch 52.5 (67469) - http://www.bohemiancoding.com/sketch -->
    <title>connecting_printer-image</title>
    <desc>Created with Sketch.</desc>
    <g id="Page-1" stroke="none" stroke-width="1" fill="none" fill-rule="evenodd">
        <g id="CC-Cloud-sign-in" transform="translate(-570.000000, -144.000000)" fill-rule="nonzero">
            <g id="connecting_printer-image" transform="translate(570.000000, 144.000000)">
                <path d="M63.3008984,85.0177202 L12.0767076,85.0177202 C11.0500033,85.1091373 10.0232991,85.4748048 9.2766051,86.1147232 L8.71658456,86.6632245 C8.1565641,87.5773937 7.03652308,87.7602276 5.91648208,87.7602276 L0.876297573,87.7602276 C0.596287323,87.7602276 0.316277073,87.4859766 0.316277073,87.2117263 L0.316277073,1.00558594 C0.316277073,0.731335231 0.596287323,0.457084518 0.876297573,0.457084518 L77.9724534,0.457084518 C78.2524634,0.457084518 78.5324739,0.731335231 78.5324739,1.00558594 L78.5324739,42.5741957 C78.1635852,42.5570534 77.7924821,42.5483871 77.4193548,42.5483871 C74.8416632,42.5483871 72.3605734,42.9619885 70.0388292,43.7264475 L70.0388292,10.0558594 C70.0388292,9.05027348 69.1987989,8.31893821 68.2654313,8.31893821 L10.4899829,8.31893821 C9.46327861,8.31893821 8.71658456,9.14169037 8.71658456,10.0558594 L8.71658456,66.6429229 C8.71658456,69.202596 10.8633298,71.305185 13.4767588,71.305185 L54.4086026,71.305185 C55.6568701,76.8785515 58.8781821,81.70661 63.3008984,85.0177202 Z" id="Combined-Shape" fill="#08073F"></path>
                <path d="M257.225336,85.0177202 L212.076708,85.0177202 C211.050003,85.1091373 210.023299,85.4748048 209.276605,86.1147232 L208.716585,86.6632245 C208.156564,87.5773937 207.036523,87.7602276 205.916482,87.7602276 L200.876298,87.7602276 C200.596287,87.7602276 200.316277,87.4859766 200.316277,87.2117263 L200.316277,1.00558594 C200.316277,0.731335231 200.596287,0.457084518 200.876298,0.457084518 L277.972453,0.457084518 C278.252463,0.457084518 278.532474,0.731335231 278.532474,1.00558594 L278.532474,44.3024343 C277.636968,44.2091464 276.727455,44.1612903 275.806452,44.1612903 C273.822185,44.1612903 271.891252,44.383424 270.038829,44.803449 L270.038829,10.0558594 C270.038829,9.05027348 269.198799,8.31893821 268.265431,8.31893821 L210.489983,8.31893821 C209.463279,8.31893821 208.716585,9.14169037 208.716585,10.0558594 L208.716585,66.6429229 C208.716585,69.202596 210.86333,71.305185 213.476759,71.305185 L250.772031,71.305185 C251.383152,76.5649228 253.72205,81.3165814 257.225336,85.0177202 Z" id="Combined-Shape" fill="#08073F"></path>
                <path d="M275.806452,90.9354839 C288.623338,90.9354839 299,80.904711 299,68.5483871 C299,56.1920632 288.623338,46.1612903 275.806452,46.1612903 C262.989565,46.1612903 252.612903,56.1920632 252.612903,68.5483871 C252.612903,80.904711 262.989565,90.9354839 275.806452,90.9354839 Z" id="Combined-Shape" fill="#3282FF"></path>
                <path d="M286.155914,65.7332735 C285.860215,63.1563619 283.642473,61.1857825 280.981183,61.1857825 C280.241935,61.1857825 279.650538,61.3373656 279.05914,61.6405316 C277.728495,59.5183692 275.362903,58.1541219 272.849462,58.1541219 C268.709677,58.1541219 265.456989,61.4889487 265.456989,65.7332735 C265.456989,65.7332735 265.456989,65.7332735 265.456989,65.8848566 C262.943548,66.1880227 261.021505,68.4617682 261.021505,71.0386798 C261.021505,73.9187574 263.387097,76.344086 266.196237,76.344086 C268.413979,76.344086 282.755376,76.344086 285.416667,76.344086 C288.225806,76.344086 290.591398,73.9187574 290.591398,71.0386798 C290.591398,68.3101852 288.669355,66.1880227 286.155914,65.7332735 Z" id="Path" fill="#FFFFFF"></path>
                <path d="M77.4193548,87.7096774 C89.3380161,87.7096774 99,78.0476935 99,66.1290323 C99,54.210371 89.3380161,44.5483871 77.4193548,44.5483871 C65.5006936,44.5483871 55.8387097,54.210371 55.8387097,66.1290323 C55.8387097,78.0476935 65.5006936,87.7096774 77.4193548,87.7096774 Z" id="Combined-Shape" fill="#3282FF"></path>
                <polygon id="Path-4" fill="#FFFFFF" points="86.2661524 57.2369049 89.189236 59.9673962 75.804589 74.2961146 67.1458193 66.0631112 69.902079 63.1643127 75.6362752 68.6165489"></polygon>
                <circle id="Oval" fill="#3282FF" cx="83.5" cy="37.5" r="1.5"></circle>
                <circle id="Oval-Copy-4" fill="#3282FF" cx="91.5" cy="37.5" r="1.5"></circle>
                <circle id="Oval-Copy-8" fill="#3282FF" cx="99.5" cy="37.5" r="1.5"></circle>
                <circle id="Oval-Copy" fill="#3282FF" cx="107.5" cy="37.5" r="1.5"></circle>
                <circle id="Oval-Copy-5" fill="#3282FF" cx="115.5" cy="37.5" r="1.5"></circle>
                <circle id="Oval-Copy-9" fill="#3282FF" cx="123.5" cy="37.5" r="1.5"></circle>
                <circle id="Oval-Copy-12" fill="#3282FF" cx="131.5" cy="37.5" r="1.5"></circle>
                <circle id="Oval-Copy-2" fill="#3282FF" cx="139.5" cy="37.5" r="1.5"></circle>
                <circle id="Oval-Copy-6" fill="#3282FF" cx="147.5" cy="37.5" r="1.5"></circle>
                <circle id="Oval-Copy-10" fill="#3282FF" cx="155.5" cy="37.5" r="1.5"></circle>
                <circle id="Oval-Copy-13" fill="#3282FF" cx="163.5" cy="37.5" r="1.5"></circle>
                <circle id="Oval-Copy-3" fill="#3282FF" cx="171.5" cy="37.5" r="1.5"></circle>
                <circle id="Oval-Copy-7" fill="#3282FF" cx="179.5" cy="37.5" r="1.5"></circle>
                <circle id="Oval-Copy-11" fill="#3282FF" cx="187.5" cy="37.5" r="1.5"></circle>
                <circle id="Oval-Copy-14" fill="#3282FF" cx="195.5" cy="37.5" r="1.5"></circle>
            </g>
        </g>
    </g>
</svg>