<?xml version="1.0" encoding="UTF-8"?>
<svg width="291px" height="209px" viewBox="0 0 291 209" version="1.1" xmlns="http://www.w3.org/2000/svg" xmlns:xlink="http://www.w3.org/1999/xlink">
    <!-- Generator: Sketch 52.5 (67469) - http://www.bohemiancoding.com/sketch -->
    <title>cloud_connected-image</title>
    <desc>Created with Sketch.</desc>
    <g id="Page-1" stroke="none" stroke-width="1" fill="none" fill-rule="evenodd">
        <g id="CC--Cloud-connection-succes" transform="translate(-570.000000, -132.000000)">
            <g id="cloud_connected-image" transform="translate(570.000000, 132.218255)">
                <path d="M151.645765,136.481718 C149.925833,142.069331 149,148.004918 149,154.156745 C149,157.125641 149.215633,160.044173 149.632091,162.897534 L94.5646946,162.897534 C92.6599327,163.073639 90.7551708,163.778061 89.3698894,165.010799 L88.3309283,166.067432 C87.2919673,167.828487 85.2140452,168.180697 83.1361231,168.180697 L73.7854738,168.180697 C73.2659933,168.180697 72.7465127,167.652381 72.7465127,167.124065 L72.7465127,152.918227 L19.3939394,152.918227 C17.7008177,153.074764 16.007696,153.700917 14.7763348,154.796684 L13.8528138,155.735914 C12.9292929,157.301296 11.0822511,157.614372 9.23520921,157.614372 L0.923520928,157.614372 C0.461760462,157.614372 1.70530257e-13,157.144757 1.70530257e-13,156.675142 L1.70530257e-13,9.0596475 C1.70530257e-13,8.59003299 0.461760462,8.12041848 0.923520928,8.12041848 L72.7465127,8.12041848 L72.7465127,1.05663265 C72.7465127,0.528316328 73.2659933,4.26325641e-13 73.7854738,4.26325641e-13 L216.815777,4.26325641e-13 C217.335257,4.26325641e-13 217.854738,0.528316328 217.854738,1.05663265 L217.854738,8.12041848 L289.677732,8.12041848 C290.139493,8.12041848 290.601253,8.59003299 290.601253,9.0596475 L290.601253,156.675142 C290.601253,157.144757 290.139493,157.614372 289.677732,157.614372 L281.366043,157.614372 C279.672922,157.457833 277.9798,156.831681 276.748439,155.735914 L275.824918,154.796684 C274.901397,153.231303 273.054355,152.918227 271.207313,152.918227 L268.987471,152.918227 C268.818229,144.560013 266.939851,136.621364 263.687558,129.437501 L268.590671,129.437501 C272.900435,129.437501 276.440598,125.837123 276.440598,121.454054 L276.594519,121.454054 L276.594519,24.5569264 C276.594519,22.8350065 275.209237,21.5827012 273.670035,21.5827012 L217.854738,21.5827012 L217.854738,94.8055789 C214.965144,94.3781586 212.008429,94.1567452 209,94.1567452 C206.665515,94.1567452 204.362169,94.2900687 202.097162,94.5495169 L202.097162,21.5827012 L202.097162,18.4910714 C202.097162,16.5539116 200.538721,15.145068 198.807119,15.145068 L161.616164,15.145068 L128.985089,15.145068 L91.6209717,15.145068 C89.7162098,15.145068 88.3309283,16.730017 88.3309283,18.4910714 L88.3309283,21.5827012 L88.3309283,127.50034 C88.3309283,128.164624 88.4032089,128.812928 88.5401496,129.437501 C89.4197136,133.449106 92.9667866,136.481718 97.1620971,136.481718 L128.985089,136.481718 L151.645765,136.481718 Z M72.7465127,129.437501 L72.7465127,21.5827012 L16.7772968,21.5827012 C15.0841751,21.5827012 13.8528138,22.9915447 13.8528138,24.5569264 L13.8528138,121.454054 C13.8528138,125.837123 17.3929774,129.437501 21.7027417,129.437501 L72.7465127,129.437501 Z" id="Combined-Shape" fill="#08073F" fill-rule="nonzero"></path>
                <circle id="Oval-Copy" fill="#3282FF" cx="209" cy="156.107565" r="52.1311475"></circle>
                <path d="M231.195231,148.909364 C230.563338,143.319143 225.824143,139.044268 220.137109,139.044268 C218.557377,139.044268 217.293592,139.373104 216.029806,140.030777 C213.186289,135.427066 208.131148,132.467538 202.76006,132.467538 C193.913562,132.467538 186.962742,139.701941 186.962742,148.909364 C186.962742,148.909364 186.962742,148.909364 186.962742,149.2382 C181.591654,149.895873 177.484352,154.828421 177.484352,160.418642 C177.484352,166.666536 182.539493,171.92792 188.542474,171.92792 C193.281669,171.92792 223.928465,171.92792 229.615499,171.92792 C235.61848,171.92792 240.673621,166.666536 240.673621,160.418642 C240.673621,154.499584 236.566319,149.895873 231.195231,148.909364 Z" id="Path" fill="#FFFFFF"></path>
            </g>
        </g>
    </g>
</svg>